<svg id="Warstwa_1" data-name="Warstwa 1" xmlns="http://www.w3.org/2000/svg" viewBox="0 0 1897.41 1938.01"><defs><style>.cls-1{fill:#fff;stroke:#000;stroke-miterlimit:10;stroke-width:97px;}</style></defs><path class="cls-1" d="M775.21,146.38c9.89,96.46-29.27,190-102.09,241.13-82.85,58.15-204,57.66-278.7-19.73-72.89-75.55-62.39-183.9-60.75-198.51-222.5,324.37-217,489.32-169.57,580.12,44.82,85.86,129.63,110.31,162.65,227.66,10.08,35.85,21.36,108.23-47,301.24-108.65,306.58-256.51,430.36-210.63,511,22.55,39.61,85.82,58.06,135.25,44.56,180.69-49.34,157.8-520.5,300.37-537.68,25.65-3.1,52.92,9,69.31,26.77,96,104.32-150.56,439.58-67.3,526.08,29.9,31.07,96,23.76,139.14-2.23,155.72-93.88,38.54-407.06,191.39-515,70.8-50,199.94-57.93,268.19-4.43,148.08,116.07,22.67,427.56,170.14,519.84,43.76,27.38,110.71,34.94,142.46,3.53,92.29-91.28-161.24-464-61.68-559.57,18.13-17.4,45.14-22.91,66.26-19.57,150,23.68,116.8,511.75,304.93,568.94,3.4,1,72.72,21.13,111.48-17.27,106.86-105.86-211.2-417.82-232.25-883.15-18.71-413.71,215.34-711,102.62-791.49-43.53-31.09-118.88-15.76-164.13,15.49-138.57,95.7-7.32,349.34-168.78,613.16-24.55,40.12-61.14,98.48-132,143.1-165.53,104.22-423.77,73.45-462.18-27.13C746.78,800.3,920.49,720,937.89,528.13,952.11,371.16,853.78,233.44,775.21,146.38Z" transform="translate(-11.99 18.32)"/><circle cx="314.4" cy="623.61" r="60.48"/><circle cx="633.65" cy="640.25" r="60.48"/></svg>